<mxfile host="65bd71144e">
    <diagram name="02" id="YMj1xpAl_SfOTKT0soET">
        <mxGraphModel dx="998" dy="971" grid="1" gridSize="10" guides="1" tooltips="1" connect="1" arrows="1" fold="1" page="1" pageScale="1" pageWidth="1169" pageHeight="827" math="0" shadow="0">
            <root>
                <mxCell id="ML3krrQk0YiTmpszw3Px-0"/>
                <mxCell id="ML3krrQk0YiTmpszw3Px-1" parent="ML3krrQk0YiTmpszw3Px-0"/>
                <mxCell id="ML3krrQk0YiTmpszw3Px-2" value="" style="rounded=0;whiteSpace=wrap;html=1;" parent="ML3krrQk0YiTmpszw3Px-1" vertex="1">
                    <mxGeometry x="40" y="120" width="360" height="320" as="geometry"/>
                </mxCell>
                <mxCell id="ML3krrQk0YiTmpszw3Px-3" value="" style="ellipse;whiteSpace=wrap;html=1;aspect=fixed;opacity=50;fillColor=#fff2cc;strokeColor=#d6b656;" parent="ML3krrQk0YiTmpszw3Px-1" vertex="1">
                    <mxGeometry x="90" y="150" width="260" height="260" as="geometry"/>
                </mxCell>
                <mxCell id="ML3krrQk0YiTmpszw3Px-4" value="地図&lt;div&gt;～認識コスト～&lt;/div&gt;" style="text;html=1;align=center;verticalAlign=middle;whiteSpace=wrap;rounded=0;fillColor=#dae8fc;strokeColor=#6c8ebf;" parent="ML3krrQk0YiTmpszw3Px-1" vertex="1">
                    <mxGeometry x="40" y="40" width="160" height="40" as="geometry"/>
                </mxCell>
                <mxCell id="ML3krrQk0YiTmpszw3Px-5" value="上から" style="text;html=1;align=center;verticalAlign=middle;whiteSpace=wrap;rounded=0;fillColor=#d5e8d4;strokeColor=#82b366;" parent="ML3krrQk0YiTmpszw3Px-1" vertex="1">
                    <mxGeometry x="190" y="90" width="60" height="30" as="geometry"/>
                </mxCell>
                <mxCell id="ML3krrQk0YiTmpszw3Px-6" value="自身の&lt;div&gt;認識可能範囲&lt;/div&gt;" style="ellipse;whiteSpace=wrap;html=1;aspect=fixed;opacity=50;fillColor=#d5e8d4;strokeColor=#82b366;" parent="ML3krrQk0YiTmpszw3Px-1" vertex="1">
                    <mxGeometry x="130" y="230" width="100" height="100" as="geometry"/>
                </mxCell>
                <mxCell id="ML3krrQk0YiTmpszw3Px-7" value="地図の&lt;div&gt;認識可能&lt;span style=&quot;color: rgb(63, 63, 63); background-color: transparent;&quot;&gt;範囲&lt;/span&gt;&lt;/div&gt;" style="text;html=1;align=center;verticalAlign=middle;whiteSpace=wrap;rounded=0;" parent="ML3krrQk0YiTmpszw3Px-1" vertex="1">
                    <mxGeometry x="180" y="340" width="80" height="30" as="geometry"/>
                </mxCell>
                <mxCell id="rRDb4SoRunlddswfgrr--0" value="" style="shape=umlActor;verticalLabelPosition=top;verticalAlign=bottom;outlineConnect=0;labelPosition=center;align=center;html=1;fillColor=#d5e8d4;strokeColor=#82b366;" parent="ML3krrQk0YiTmpszw3Px-1" vertex="1">
                    <mxGeometry x="580" y="140" width="30" height="60" as="geometry"/>
                </mxCell>
                <mxCell id="rRDb4SoRunlddswfgrr--1" value="" style="endArrow=none;html=1;" parent="ML3krrQk0YiTmpszw3Px-1" edge="1">
                    <mxGeometry width="50" height="50" relative="1" as="geometry">
                        <mxPoint x="440" y="200" as="sourcePoint"/>
                        <mxPoint x="880" y="200" as="targetPoint"/>
                    </mxGeometry>
                </mxCell>
                <mxCell id="rRDb4SoRunlddswfgrr--4" value="" style="endArrow=classic;html=1;exitX=0;exitY=0.3333333333333333;exitDx=0;exitDy=0;exitPerimeter=0;" parent="ML3krrQk0YiTmpszw3Px-1" source="rRDb4SoRunlddswfgrr--0" edge="1">
                    <mxGeometry width="50" height="50" relative="1" as="geometry">
                        <mxPoint x="570" y="150" as="sourcePoint"/>
                        <mxPoint x="480" y="200" as="targetPoint"/>
                    </mxGeometry>
                </mxCell>
                <mxCell id="rRDb4SoRunlddswfgrr--5" value="" style="endArrow=classic;html=1;exitX=1;exitY=0.3333333333333333;exitDx=0;exitDy=0;exitPerimeter=0;" parent="ML3krrQk0YiTmpszw3Px-1" source="rRDb4SoRunlddswfgrr--0" edge="1">
                    <mxGeometry width="50" height="50" relative="1" as="geometry">
                        <mxPoint x="630" y="150" as="sourcePoint"/>
                        <mxPoint x="720" y="200" as="targetPoint"/>
                    </mxGeometry>
                </mxCell>
                <mxCell id="rRDb4SoRunlddswfgrr--6" value="横から" style="text;html=1;align=center;verticalAlign=middle;whiteSpace=wrap;rounded=0;fillColor=#d5e8d4;strokeColor=#82b366;" parent="ML3krrQk0YiTmpszw3Px-1" vertex="1">
                    <mxGeometry x="615" y="90" width="60" height="30" as="geometry"/>
                </mxCell>
                <mxCell id="rRDb4SoRunlddswfgrr--7" value="" style="endArrow=none;html=1;" parent="ML3krrQk0YiTmpszw3Px-1" edge="1">
                    <mxGeometry width="50" height="50" relative="1" as="geometry">
                        <mxPoint x="420" y="360" as="sourcePoint"/>
                        <mxPoint x="890" y="360" as="targetPoint"/>
                    </mxGeometry>
                </mxCell>
                <mxCell id="rRDb4SoRunlddswfgrr--8" value="" style="shape=tape;whiteSpace=wrap;html=1;fillColor=#fff2cc;strokeColor=#d6b656;" parent="ML3krrQk0YiTmpszw3Px-1" vertex="1">
                    <mxGeometry x="615" y="230" width="80" height="60" as="geometry"/>
                </mxCell>
                <mxCell id="rRDb4SoRunlddswfgrr--9" value="" style="endArrow=classic;html=1;exitX=0;exitY=0.5;exitDx=0;exitDy=0;exitPerimeter=0;" parent="ML3krrQk0YiTmpszw3Px-1" source="rRDb4SoRunlddswfgrr--8" edge="1">
                    <mxGeometry width="50" height="50" relative="1" as="geometry">
                        <mxPoint x="600" y="255" as="sourcePoint"/>
                        <mxPoint x="440" y="360" as="targetPoint"/>
                    </mxGeometry>
                </mxCell>
                <mxCell id="rRDb4SoRunlddswfgrr--10" value="" style="endArrow=classic;html=1;exitX=1;exitY=0.5;exitDx=0;exitDy=0;exitPerimeter=0;" parent="ML3krrQk0YiTmpszw3Px-1" source="rRDb4SoRunlddswfgrr--8" edge="1">
                    <mxGeometry width="50" height="50" relative="1" as="geometry">
                        <mxPoint x="610" y="265" as="sourcePoint"/>
                        <mxPoint x="880" y="360" as="targetPoint"/>
                    </mxGeometry>
                </mxCell>
                <mxCell id="rRDb4SoRunlddswfgrr--11" value="他者の&lt;div&gt;認識可能範囲&lt;/div&gt;" style="ellipse;whiteSpace=wrap;html=1;aspect=fixed;opacity=50;fillColor=#ffe6cc;strokeColor=#d79b00;" parent="ML3krrQk0YiTmpszw3Px-1" vertex="1">
                    <mxGeometry x="200" y="230" width="100" height="100" as="geometry"/>
                </mxCell>
                <mxCell id="6aYD1fa58E0Rv4nF0SZL-0" value="" style="shape=umlActor;verticalLabelPosition=top;verticalAlign=bottom;outlineConnect=0;labelPosition=center;align=center;html=1;fillColor=#ffe6cc;strokeColor=#d79b00;" vertex="1" parent="ML3krrQk0YiTmpszw3Px-1">
                    <mxGeometry x="695" y="140" width="30" height="60" as="geometry"/>
                </mxCell>
                <mxCell id="6aYD1fa58E0Rv4nF0SZL-1" value="" style="endArrow=classic;html=1;exitX=1;exitY=0.3333333333333333;exitDx=0;exitDy=0;exitPerimeter=0;" edge="1" parent="ML3krrQk0YiTmpszw3Px-1">
                    <mxGeometry width="50" height="50" relative="1" as="geometry">
                        <mxPoint x="725" y="160" as="sourcePoint"/>
                        <mxPoint x="835" y="200" as="targetPoint"/>
                    </mxGeometry>
                </mxCell>
                <mxCell id="6aYD1fa58E0Rv4nF0SZL-2" value="" style="endArrow=classic;html=1;exitX=0;exitY=0.3333333333333333;exitDx=0;exitDy=0;exitPerimeter=0;" edge="1" parent="ML3krrQk0YiTmpszw3Px-1">
                    <mxGeometry width="50" height="50" relative="1" as="geometry">
                        <mxPoint x="695" y="160" as="sourcePoint"/>
                        <mxPoint x="595" y="200" as="targetPoint"/>
                    </mxGeometry>
                </mxCell>
            </root>
        </mxGraphModel>
    </diagram>
</mxfile>